<?xml version="1.0" standalone="no"?>
<!DOCTYPE svg PUBLIC "-//W3C//DTD SVG 20010904//EN"
 "http://www.w3.org/TR/2001/REC-SVG-20010904/DTD/svg10.dtd">
<svg version="1.0" xmlns="http://www.w3.org/2000/svg"
 width="300.000000pt" height="300.000000pt" viewBox="0 0 300.000000 300.000000"
 preserveAspectRatio="xMidYMid meet">
<metadata>
Created by potrace 1.10, written by Peter Selinger 2001-2011
</metadata>
<g transform="translate(0.000000,300.000000) scale(0.100000,-0.100000)"
fill="#000000" stroke="none">
<path d="M1402 2762 c-104 -37 -172 -118 -195 -231 l-13 -62 -79 -32 c-238
-96 -456 -314 -552 -552 l-32 -79 -62 -13 c-195 -39 -300 -237 -221 -415 41
-92 115 -150 222 -171 l61 -13 32 -79 c96 -238 314 -456 552 -552 l79 -32 13
-61 c21 -107 79 -181 171 -222 178 -79 376 26 415 221 l13 62 79 32 c238 96
456 314 552 552 l32 79 61 13 c107 21 181 79 222 171 79 178 -26 376 -221 415
l-62 13 -32 79 c-96 238 -314 456 -552 552 l-79 32 -13 61 c-14 72 -50 137
-95 176 -80 67 -200 90 -296 56z m193 -71 c22 -10 57 -36 77 -59 132 -147 26
-382 -172 -382 -202 0 -306 242 -167 389 66 69 177 91 262 52z m-375 -309 c0
-30 57 -109 101 -142 151 -109 365 -58 445 106 14 30 28 54 31 54 2 0 36 -14
76 -30 212 -91 406 -286 497 -499 17 -39 30 -74 30 -79 0 -5 -17 -14 -38 -20
-55 -17 -117 -74 -149 -140 -23 -47 -28 -70 -28 -132 1 -122 56 -215 161 -266
30 -14 54 -28 54 -31 0 -2 -13 -35 -30 -74 -91 -213 -285 -408 -497 -499 -40
-16 -76 -30 -81 -30 -5 0 -14 17 -20 38 -6 21 -28 57 -47 79 -84 98 -239 128
-357 70 -66 -32 -123 -94 -140 -149 -6 -21 -15 -38 -20 -38 -5 0 -41 14 -81
30 -213 91 -416 296 -502 508 -14 34 -25 66 -25 71 0 4 13 11 29 14 15 3 48
21 72 39 121 93 152 266 71 397 -32 52 -102 109 -143 118 -16 3 -29 10 -29 15
0 5 14 41 30 81 90 211 284 404 497 497 80 34 93 36 93 12z m-612 -668 c144
-60 189 -250 86 -364 -145 -160 -404 -64 -404 150 0 32 8 72 19 96 21 46 91
111 136 123 48 14 123 12 163 -5z m1960 0 c85 -35 142 -120 142 -214 0 -129
-101 -230 -230 -230 -204 0 -308 250 -164 394 62 62 171 84 252 50z m-945
-1001 c65 -45 100 -102 105 -172 5 -74 -10 -123 -57 -174 -47 -52 -102 -77
-171 -77 -202 0 -306 242 -167 389 52 54 101 73 180 68 56 -4 77 -10 110 -34z"/>
<path d="M1535 2520 l-90 -91 -32 36 c-34 40 -75 45 -81 11 -4 -19 92 -126
113 -126 6 0 60 50 120 110 93 94 108 113 99 128 -6 9 -17 18 -25 20 -8 1 -54
-38 -104 -88z"/>
<path d="M1397 2082 c-17 -3 -22 -22 -35 -131 -5 -48 -12 -67 -27 -75 -10 -6
-37 -21 -58 -34 l-39 -24 -83 36 c-46 20 -88 36 -94 36 -15 0 -122 -187 -115
-203 2 -7 37 -38 77 -67 l72 -53 0 -67 0 -67 -72 -53 c-40 -29 -75 -60 -77
-67 -7 -16 100 -203 115 -203 6 0 48 16 94 36 l83 36 39 -24 c21 -13 48 -28
58 -34 16 -9 22 -29 31 -103 7 -51 14 -94 16 -96 6 -6 228 -8 235 -2 3 3 10
47 17 98 9 74 15 94 31 103 10 6 37 21 58 34 l39 24 83 -36 c46 -20 88 -36 94
-36 10 0 121 181 121 198 0 6 -35 36 -77 68 l-78 57 0 67 0 67 78 57 c42 32
77 62 77 68 0 17 -111 198 -121 198 -6 0 -48 -16 -94 -36 l-83 -36 -39 24
c-21 13 -48 28 -58 34 -15 8 -22 27 -27 75 -5 35 -10 78 -13 96 l-6 32 -103 3
c-57 2 -111 2 -119 0z m166 -84 c3 -13 9 -54 12 -91 l7 -68 47 -23 c25 -12 63
-34 84 -49 l38 -26 80 35 c45 19 82 34 83 34 2 0 18 -24 36 -52 l32 -53 -23
-15 c-13 -8 -46 -33 -73 -55 l-49 -40 0 -95 0 -95 49 -40 c27 -22 60 -47 73
-55 l23 -15 -32 -53 c-18 -28 -34 -52 -36 -52 -1 0 -38 15 -82 34 l-79 34 -29
-19 c-16 -11 -54 -33 -85 -49 l-57 -29 -7 -68 c-12 -117 -9 -113 -75 -113 -66
0 -63 -4 -75 113 l-7 68 -47 23 c-25 12 -63 34 -84 49 l-38 26 -80 -35 c-45
-19 -82 -34 -83 -34 -2 0 -18 24 -36 52 l-32 53 23 15 c13 8 46 33 73 55 l49
40 0 95 0 95 -49 40 c-27 22 -60 47 -73 55 l-23 15 32 53 c18 28 34 52 36 52
1 0 38 -15 82 -34 l79 -34 29 19 c16 11 54 33 85 49 l57 29 7 68 c12 117 9
113 75 113 52 0 58 -2 63 -22z"/>
<path d="M1405 1706 c-60 -28 -87 -56 -114 -116 -36 -79 -19 -183 42 -249 33
-36 115 -71 167 -71 52 0 134 35 167 71 34 37 63 110 63 159 0 52 -35 134 -71
167 -37 34 -110 63 -159 63 -27 0 -65 -10 -95 -24z m176 -69 c106 -71 106
-203 0 -274 -98 -66 -241 15 -241 137 0 87 73 160 160 160 32 0 58 -7 81 -23z"/>
<path d="M587 1634 c-4 -4 -7 -54 -7 -111 0 -85 -3 -103 -15 -103 -12 0 -15
15 -15 75 0 61 -3 77 -16 82 -35 13 -49 -11 -49 -83 0 -55 -3 -69 -15 -69 -11
0 -14 9 -12 30 2 17 -4 39 -12 50 -23 31 -50 9 -54 -44 -2 -27 -8 -41 -17 -41
-19 0 -27 -17 -20 -40 6 -19 15 -20 159 -20 152 0 176 5 176 37 0 8 -11 18
-25 23 -23 9 -24 13 -27 112 -3 95 -5 103 -23 106 -12 2 -24 0 -28 -4z"/>
<path d="M2456 1688 c-3 -7 -6 -22 -8 -32 -2 -11 -11 -20 -21 -22 -27 -4 -29
-8 -33 -69 -6 -77 6 -95 61 -95 38 0 45 -3 45 -20 0 -17 -7 -20 -44 -20 -25 0
-48 -6 -55 -14 -16 -20 -3 -46 24 -46 19 0 24 -6 27 -32 2 -28 7 -33 28 -33
21 0 26 5 28 33 3 26 8 32 27 32 28 0 35 16 35 80 0 74 -5 80 -61 80 -42 0
-49 3 -49 20 0 17 7 20 44 20 47 0 70 17 60 44 -3 9 -17 19 -30 22 -15 4 -24
14 -26 32 -2 19 -10 28 -26 30 -12 2 -24 -3 -26 -10z"/>
<path d="M1386 634 c-22 -21 -21 -23 26 -71 l42 -43 -42 -43 c-28 -29 -41 -49
-37 -59 13 -34 38 -29 82 14 l43 42 43 -42 c44 -43 69 -48 82 -14 4 10 -9 30
-37 59 l-42 43 42 43 c43 44 48 69 14 82 -10 4 -30 -9 -59 -37 l-43 -42 -43
42 c-48 47 -50 48 -71 26z"/>
</g>
</svg>
