<svg xmlns="http://www.w3.org/2000/svg" xmlns:xlink="http://www.w3.org/1999/xlink" width="1700" zoomAndPan="magnify" viewBox="0 0 375 135.000003" height="980" preserveAspectRatio="xMidYMid meet" version="1.0"><defs><g/><clipPath id="id1"><path d="M 322 32 L 373.621094 32 L 373.621094 111 L 322 111 Z M 322 32 " clip-rule="nonzero"/></clipPath><clipPath id="id2"><path d="M 1.378906 120 L 370 120 L 370 125 L 1.378906 125 Z M 1.378906 120 " clip-rule="nonzero"/></clipPath><clipPath id="id3"><path d="M 40.152344 47.609375 L 101.945312 47.609375 L 101.945312 109.402344 L 40.152344 109.402344 Z M 40.152344 47.609375 " clip-rule="nonzero"/></clipPath></defs><g fill="#5ce1e6" fill-opacity="1"><g transform="translate(1.378672, 109.439343)"><g><path d="M 11.421875 -1.265625 C 10.191406 1.265625 9.148438 2.550781 8.296875 2.59375 C 7.453125 2.632812 6.742188 1.789062 6.171875 0.0625 C 5.597656 -1.664062 5.132812 -4.109375 4.78125 -7.265625 C 4.4375 -10.421875 4.207031 -13.921875 4.09375 -17.765625 C 3.976562 -21.609375 3.957031 -25.644531 4.03125 -29.875 C 4.113281 -34.101562 4.25 -38.175781 4.4375 -42.09375 C 4.632812 -46.007812 4.882812 -49.601562 5.1875 -52.875 C 5.5 -56.144531 5.828125 -58.71875 6.171875 -60.59375 C 6.515625 -62.476562 6.878906 -63.5 7.265625 -63.65625 C 7.648438 -63.8125 8.035156 -62.773438 8.421875 -60.546875 C 10.878906 -62.390625 13.53125 -64.132812 16.375 -65.78125 C 19.21875 -67.4375 22.15625 -68.820312 25.1875 -69.9375 C 28.226562 -71.0625 31.304688 -71.773438 34.421875 -72.078125 C 37.535156 -72.390625 40.554688 -72.117188 43.484375 -71.265625 C 43.785156 -70.265625 43.820312 -69.109375 43.59375 -67.796875 C 43.363281 -66.492188 42.632812 -65.65625 41.40625 -65.28125 C 40.175781 -65.507812 38.5625 -65.625 36.5625 -65.625 C 34.5625 -65.625 32.445312 -65.46875 30.21875 -65.15625 C 27.988281 -64.851562 25.757812 -64.351562 23.53125 -63.65625 C 21.300781 -62.96875 19.28125 -62.066406 17.46875 -60.953125 C 15.664062 -59.835938 14.207031 -58.488281 13.09375 -56.90625 C 11.976562 -55.332031 11.421875 -53.46875 11.421875 -51.3125 Z M 11.421875 -1.265625 "/></g></g></g><g fill="#5ce1e6" fill-opacity="1"><g transform="translate(50.046308, 109.439343)"><g/></g></g><g fill="#5ce1e6" fill-opacity="1"><g transform="translate(109.093297, 109.439343)"><g><path d="M 6 -6 C 5.84375 -6.300781 5.648438 -6.816406 5.421875 -7.546875 C 5.191406 -8.285156 4.976562 -9.09375 4.78125 -9.96875 C 4.59375 -10.851562 4.421875 -11.679688 4.265625 -12.453125 C 4.109375 -13.222656 4.03125 -13.757812 4.03125 -14.0625 L 4.03125 -58.125 C 4.03125 -58.8125 4.300781 -59.304688 4.84375 -59.609375 C 5.382812 -59.921875 6 -60.113281 6.6875 -60.1875 C 7.382812 -60.269531 8.054688 -60.269531 8.703125 -60.1875 C 9.359375 -60.113281 9.800781 -60.039062 10.03125 -59.96875 C 9.957031 -58.96875 9.921875 -57.429688 9.921875 -55.359375 C 9.921875 -53.285156 9.898438 -50.941406 9.859375 -48.328125 C 9.816406 -45.710938 9.816406 -42.941406 9.859375 -40.015625 C 9.898438 -37.097656 9.921875 -34.289062 9.921875 -31.59375 L 9.921875 -24.5625 C 9.921875 -22.488281 9.957031 -20.953125 10.03125 -19.953125 C 10.1875 -15.648438 10.78125 -12.648438 11.8125 -10.953125 C 12.851562 -9.265625 14.125 -8.476562 15.625 -8.59375 C 17.125 -8.707031 18.695312 -9.550781 20.34375 -11.125 C 22 -12.707031 23.539062 -14.59375 24.96875 -16.78125 C 26.394531 -18.96875 27.585938 -21.253906 28.546875 -23.640625 C 29.503906 -26.023438 29.984375 -28.140625 29.984375 -29.984375 L 29.984375 -59.96875 L 38.0625 -59.96875 C 37.90625 -58.195312 37.710938 -55.890625 37.484375 -53.046875 C 37.253906 -50.203125 37.117188 -47.125 37.078125 -43.8125 C 37.035156 -40.507812 37.09375 -37.144531 37.25 -33.71875 C 37.40625 -30.300781 37.769531 -27.070312 38.34375 -24.03125 C 38.914062 -21 39.738281 -18.347656 40.8125 -16.078125 C 41.894531 -13.816406 43.300781 -12.203125 45.03125 -11.234375 C 46.757812 -10.273438 48.851562 -10.125 51.3125 -10.78125 C 53.78125 -11.4375 56.703125 -13.1875 60.078125 -16.03125 C 60.773438 -14.03125 60.507812 -12.109375 59.28125 -10.265625 C 58.050781 -8.421875 56.4375 -6.804688 54.4375 -5.421875 C 52.4375 -4.035156 50.28125 -3.015625 47.96875 -2.359375 C 45.664062 -1.710938 43.707031 -1.578125 42.09375 -1.953125 C 41.863281 -2.035156 41.5 -2.34375 41 -2.875 C 40.5 -3.414062 40.171875 -3.800781 40.015625 -4.03125 C 39.710938 -4.570312 39.175781 -5.59375 38.40625 -7.09375 C 37.632812 -8.59375 36.828125 -10.1875 35.984375 -11.875 C 35.140625 -13.570312 34.347656 -15.1875 33.609375 -16.71875 C 32.878906 -18.257812 32.363281 -19.335938 32.0625 -19.953125 C 31.601562 -19.109375 30.832031 -17.820312 29.75 -16.09375 C 28.675781 -14.363281 27.390625 -12.515625 25.890625 -10.546875 C 24.390625 -8.585938 22.773438 -6.742188 21.046875 -5.015625 C 19.316406 -3.285156 17.566406 -2.054688 15.796875 -1.328125 C 14.023438 -0.597656 12.296875 -0.519531 10.609375 -1.09375 C 8.921875 -1.664062 7.382812 -3.300781 6 -6 Z M 6 -6 "/></g></g></g><g fill="#ffde59" fill-opacity="1"><g transform="translate(160.873015, 109.439343)"><g><path d="M 32.984375 -8.078125 C 31.296875 -10.921875 29.988281 -14.128906 29.0625 -17.703125 C 28.132812 -21.273438 27.476562 -24.941406 27.09375 -28.703125 C 26.71875 -32.472656 26.546875 -36.203125 26.578125 -39.890625 C 26.617188 -43.585938 26.71875 -46.972656 26.875 -50.046875 C 25.789062 -50.359375 24.554688 -50.28125 23.171875 -49.8125 C 21.796875 -49.351562 20.335938 -48.757812 18.796875 -48.03125 C 17.253906 -47.300781 15.675781 -46.515625 14.0625 -45.671875 C 12.445312 -44.828125 10.945312 -44.210938 9.5625 -43.828125 C 8.1875 -43.441406 6.921875 -43.363281 5.765625 -43.59375 C 4.609375 -43.820312 3.6875 -44.628906 3 -46.015625 C 2.300781 -47.316406 2.351562 -48.351562 3.15625 -49.125 C 3.96875 -49.894531 5.160156 -50.488281 6.734375 -50.90625 C 8.316406 -51.332031 10.144531 -51.640625 12.21875 -51.828125 C 14.300781 -52.023438 16.265625 -52.273438 18.109375 -52.578125 C 19.953125 -52.890625 21.523438 -53.296875 22.828125 -53.796875 C 24.140625 -54.296875 24.832031 -55.046875 24.90625 -56.046875 L 28.953125 -99.984375 C 29.023438 -100.679688 29.382812 -101.21875 30.03125 -101.59375 C 30.6875 -101.976562 31.378906 -102.171875 32.109375 -102.171875 C 32.847656 -102.171875 33.503906 -102 34.078125 -101.65625 C 34.648438 -101.3125 34.9375 -100.753906 34.9375 -99.984375 L 34.9375 -62.046875 C 36.019531 -61.816406 37.0625 -61.832031 38.0625 -62.09375 C 39.0625 -62.363281 40.0625 -62.691406 41.0625 -63.078125 C 42.0625 -63.460938 43.039062 -63.769531 44 -64 C 44.957031 -64.238281 45.972656 -64.238281 47.046875 -64 C 47.515625 -63.15625 47.441406 -62.367188 46.828125 -61.640625 C 46.210938 -60.910156 45.597656 -60.351562 44.984375 -59.96875 L 42.90625 -58.703125 C 41.976562 -58.160156 40.992188 -57.5625 39.953125 -56.90625 C 38.921875 -56.257812 37.921875 -55.664062 36.953125 -55.125 C 35.992188 -54.582031 35.320312 -54.238281 34.9375 -54.09375 C 34.863281 -53.007812 34.804688 -51.140625 34.765625 -48.484375 C 34.734375 -45.835938 34.71875 -43.015625 34.71875 -40.015625 C 34.71875 -37.015625 34.734375 -34.1875 34.765625 -31.53125 C 34.804688 -28.882812 34.863281 -27.023438 34.9375 -25.953125 C 35.25 -22.335938 35.941406 -19.03125 37.015625 -16.03125 C 38.097656 -13.03125 39.5625 -10.679688 41.40625 -8.984375 C 43.25 -7.296875 45.457031 -6.453125 48.03125 -6.453125 C 50.601562 -6.453125 53.625 -7.644531 57.09375 -10.03125 C 57.625 -8.257812 57.582031 -6.679688 56.96875 -5.296875 C 56.351562 -3.921875 55.351562 -2.828125 53.96875 -2.015625 C 52.582031 -1.210938 50.925781 -0.691406 49 -0.453125 C 47.082031 -0.222656 45.144531 -0.335938 43.1875 -0.796875 C 41.226562 -1.265625 39.328125 -2.09375 37.484375 -3.28125 C 35.640625 -4.476562 34.140625 -6.078125 32.984375 -8.078125 Z M 32.984375 -8.078125 "/></g></g></g><g fill="#ffde59" fill-opacity="1"><g transform="translate(212.193151, 109.439343)"><g><path d="M 4.03125 -6 C 3.882812 -6.300781 3.691406 -6.894531 3.453125 -7.78125 C 3.222656 -8.664062 2.992188 -9.644531 2.765625 -10.71875 C 2.535156 -11.800781 2.34375 -12.84375 2.1875 -13.84375 C 2.03125 -14.84375 1.953125 -15.570312 1.953125 -16.03125 L 1.953125 -72.078125 C 1.953125 -72.847656 2.296875 -73.382812 2.984375 -73.6875 C 3.679688 -74 4.472656 -74.171875 5.359375 -74.203125 C 6.242188 -74.242188 7.050781 -74.226562 7.78125 -74.15625 C 8.507812 -74.082031 8.914062 -74.046875 9 -74.046875 L 9 -12 C 9 -10.6875 9.421875 -9.609375 10.265625 -8.765625 C 11.109375 -7.921875 12.109375 -7.25 13.265625 -6.75 C 14.421875 -6.25 15.613281 -5.941406 16.84375 -5.828125 C 18.070312 -5.710938 19.109375 -5.769531 19.953125 -6 C 21.023438 -4.382812 21.003906 -3.09375 19.890625 -2.125 C 18.773438 -1.164062 17.195312 -0.628906 15.15625 -0.515625 C 13.125 -0.398438 11.007812 -0.785156 8.8125 -1.671875 C 6.625 -2.554688 5.03125 -4 4.03125 -6 Z M 0 -92.140625 C 0 -94.367188 0.882812 -95.8125 2.65625 -96.46875 C 4.425781 -97.125 6.234375 -97.03125 8.078125 -96.1875 L 8.078125 -90.0625 C 7.847656 -89.988281 7.441406 -89.929688 6.859375 -89.890625 C 6.285156 -89.859375 5.671875 -89.84375 5.015625 -89.84375 C 4.359375 -89.84375 3.742188 -89.859375 3.171875 -89.890625 C 2.597656 -89.929688 2.191406 -89.988281 1.953125 -90.0625 C 1.648438 -90.144531 1.25 -90.453125 0.75 -90.984375 C 0.25 -91.523438 0 -91.910156 0 -92.140625 Z M 0 -92.140625 "/></g></g></g><g fill="#ffde59" fill-opacity="1"><g transform="translate(235.258381, 109.439343)"><g><path d="M 37.015625 -1.953125 C 37.171875 -5.035156 37.265625 -8.285156 37.296875 -11.703125 C 37.335938 -15.128906 37.28125 -18.570312 37.125 -22.03125 C 36.976562 -25.488281 36.726562 -28.925781 36.375 -32.34375 C 36.03125 -35.769531 35.550781 -39.019531 34.9375 -42.09375 C 33.863281 -47.707031 32.5 -51.992188 30.84375 -54.953125 C 29.195312 -57.910156 27.46875 -59.484375 25.65625 -59.671875 C 23.851562 -59.867188 22.160156 -58.679688 20.578125 -56.109375 C 19.003906 -53.535156 17.796875 -49.515625 16.953125 -44.046875 C 16.796875 -43.203125 16.601562 -41.894531 16.375 -40.125 C 16.144531 -38.363281 15.894531 -36.367188 15.625 -34.140625 C 15.351562 -31.910156 15.082031 -29.546875 14.8125 -27.046875 C 14.550781 -24.546875 14.285156 -22.179688 14.015625 -19.953125 C 13.742188 -17.722656 13.53125 -15.722656 13.375 -13.953125 C 13.21875 -12.179688 13.101562 -10.875 13.03125 -10.03125 C 12.570312 -8.800781 11.707031 -8.070312 10.4375 -7.84375 C 9.164062 -7.613281 7.992188 -7.691406 6.921875 -8.078125 L 3 -68.046875 C 2.925781 -69.046875 3.15625 -69.910156 3.6875 -70.640625 C 4.226562 -71.367188 4.84375 -71.867188 5.53125 -72.140625 C 6.226562 -72.410156 6.921875 -72.390625 7.609375 -72.078125 C 8.304688 -71.773438 8.769531 -71.082031 9 -70 L 13.03125 -52.125 C 15.414062 -57.894531 17.625 -61.988281 19.65625 -64.40625 C 21.695312 -66.832031 23.601562 -68.082031 25.375 -68.15625 C 27.144531 -68.226562 28.835938 -67.378906 30.453125 -65.609375 C 32.066406 -63.847656 33.582031 -61.71875 35 -59.21875 C 36.425781 -56.71875 37.789062 -54.0625 39.09375 -51.25 C 40.40625 -48.445312 41.710938 -46.046875 43.015625 -44.046875 C 46.171875 -54.890625 49.765625 -62.710938 53.796875 -67.515625 C 57.835938 -72.328125 61.722656 -74.304688 65.453125 -73.453125 C 69.179688 -72.609375 72.46875 -69.015625 75.3125 -62.671875 C 78.15625 -56.335938 80.035156 -47.441406 80.953125 -35.984375 C 81.109375 -34.210938 81.222656 -31.882812 81.296875 -29 C 81.378906 -26.125 81.421875 -23.300781 81.421875 -20.53125 C 81.421875 -17.757812 81.378906 -15.351562 81.296875 -13.3125 C 81.222656 -11.28125 81.109375 -10.1875 80.953125 -10.03125 L 79 -8.078125 L 74.96875 -12 C 75.425781 -15.988281 75.554688 -20.15625 75.359375 -24.5 C 75.171875 -28.84375 74.75 -33.207031 74.09375 -37.59375 C 73.4375 -41.976562 72.644531 -46.242188 71.71875 -50.390625 C 70.800781 -54.546875 69.882812 -58.429688 68.96875 -62.046875 C 67.882812 -65.117188 66.570312 -66.90625 65.03125 -67.40625 C 63.5 -67.90625 61.945312 -67.632812 60.375 -66.59375 C 58.800781 -65.5625 57.359375 -64.023438 56.046875 -61.984375 C 54.742188 -59.953125 53.742188 -57.972656 53.046875 -56.046875 C 52.585938 -54.890625 52.03125 -53.347656 51.375 -51.421875 C 50.71875 -49.503906 50.082031 -47.582031 49.46875 -45.65625 C 48.851562 -43.738281 48.316406 -42.050781 47.859375 -40.59375 C 47.398438 -39.132812 47.128906 -38.289062 47.046875 -38.0625 C 46.742188 -36.675781 46.378906 -34.289062 45.953125 -30.90625 C 45.535156 -27.519531 45.113281 -23.90625 44.6875 -20.0625 C 44.257812 -16.21875 43.890625 -12.582031 43.578125 -9.15625 C 43.273438 -5.738281 43.085938 -3.335938 43.015625 -1.953125 C 43.015625 -0.804688 42.707031 -0.15625 42.09375 0 C 41.476562 0.15625 40.785156 0.078125 40.015625 -0.234375 C 39.171875 -0.535156 38.171875 -1.109375 37.015625 -1.953125 Z M 37.015625 -1.953125 "/></g></g></g><g clip-path="url(#id1)"><g fill="#ffde59" fill-opacity="1"><g transform="translate(321.291689, 109.439343)"><g><path d="M 23.984375 -1.953125 C 20.753906 -4.492188 18.195312 -7.472656 16.3125 -10.890625 C 14.4375 -14.316406 13 -17.988281 12 -21.90625 C 11.53125 -21.519531 10.832031 -21.097656 9.90625 -20.640625 C 8.988281 -20.179688 8.050781 -19.796875 7.09375 -19.484375 C 6.132812 -19.179688 5.191406 -18.972656 4.265625 -18.859375 C 3.347656 -18.742188 2.675781 -18.835938 2.25 -19.140625 C 1.820312 -19.453125 1.703125 -19.972656 1.890625 -20.703125 C 2.085938 -21.429688 2.800781 -22.523438 4.03125 -23.984375 C 4.1875 -24.210938 4.664062 -24.710938 5.46875 -25.484375 C 6.28125 -26.253906 7.144531 -27.082031 8.0625 -27.96875 C 8.988281 -28.851562 9.835938 -29.695312 10.609375 -30.5 C 11.378906 -31.3125 11.84375 -31.832031 12 -32.0625 C 12.84375 -33.976562 13.359375 -36.085938 13.546875 -38.390625 C 13.742188 -40.703125 13.859375 -43.109375 13.890625 -45.609375 C 13.929688 -48.109375 14.066406 -50.585938 14.296875 -53.046875 C 14.523438 -55.503906 15.101562 -57.8125 16.03125 -59.96875 C 16.570312 -61.195312 17.585938 -62.710938 19.078125 -64.515625 C 20.578125 -66.328125 22.269531 -68.078125 24.15625 -69.765625 C 26.039062 -71.460938 27.960938 -72.984375 29.921875 -74.328125 C 31.890625 -75.671875 33.582031 -76.492188 35 -76.796875 C 36.425781 -77.109375 37.460938 -76.765625 38.109375 -75.765625 C 38.765625 -74.765625 38.75 -72.84375 38.0625 -70 C 37.207031 -66.613281 35.914062 -63.328125 34.1875 -60.140625 C 32.457031 -56.953125 30.671875 -53.800781 28.828125 -50.6875 C 26.984375 -47.570312 25.234375 -44.472656 23.578125 -41.390625 C 21.929688 -38.316406 20.757812 -35.207031 20.0625 -32.0625 C 19.675781 -30.375 19.484375 -28.316406 19.484375 -25.890625 C 19.484375 -23.472656 19.753906 -21.070312 20.296875 -18.6875 C 20.835938 -16.300781 21.722656 -14.125 22.953125 -12.15625 C 24.179688 -10.195312 25.875 -8.835938 28.03125 -8.078125 C 30.488281 -7.148438 32.945312 -6.914062 35.40625 -7.375 C 37.863281 -7.84375 40.265625 -8.726562 42.609375 -10.03125 C 44.953125 -11.34375 47.203125 -12.976562 49.359375 -14.9375 C 51.515625 -16.894531 53.515625 -18.910156 55.359375 -20.984375 C 57.203125 -23.066406 58.851562 -25.085938 60.3125 -27.046875 C 61.769531 -29.003906 63 -30.675781 64 -32.0625 L 65.96875 -29.984375 C 66.507812 -29.523438 66.179688 -28.21875 64.984375 -26.0625 C 63.796875 -23.90625 62.066406 -21.460938 59.796875 -18.734375 C 57.523438 -16.003906 54.851562 -13.21875 51.78125 -10.375 C 48.707031 -7.53125 45.535156 -5.144531 42.265625 -3.21875 C 38.992188 -1.300781 35.765625 -0.113281 32.578125 0.34375 C 29.390625 0.800781 26.523438 0.0351562 23.984375 -1.953125 Z M 20.0625 -52.125 C 19.988281 -51.738281 19.929688 -51.066406 19.890625 -50.109375 C 19.859375 -49.148438 19.84375 -48.128906 19.84375 -47.046875 C 19.84375 -45.972656 19.859375 -44.972656 19.890625 -44.046875 C 19.929688 -43.128906 19.988281 -42.476562 20.0625 -42.09375 C 22.519531 -46.320312 24.828125 -50.816406 26.984375 -55.578125 C 29.140625 -60.347656 30.832031 -65.15625 32.0625 -70 C 30.289062 -69.382812 28.691406 -68.441406 27.265625 -67.171875 C 25.847656 -65.910156 24.640625 -64.453125 23.640625 -62.796875 C 22.640625 -61.140625 21.847656 -59.390625 21.265625 -57.546875 C 20.691406 -55.703125 20.289062 -53.894531 20.0625 -52.125 Z M 20.0625 -52.125 "/></g></g></g></g><g clip-path="url(#id2)"><path fill="#5ce1e6" d="M 1.378906 120.605469 L 12.546875 120.605469 L 12.546875 124.328125 L 1.378906 124.328125 M 16.269531 120.605469 L 27.4375 120.605469 L 27.4375 124.328125 L 16.269531 124.328125 M 31.15625 120.605469 L 42.324219 120.605469 L 42.324219 124.328125 L 31.15625 124.328125 M 46.046875 120.605469 L 57.214844 120.605469 L 57.214844 124.328125 L 46.046875 124.328125 M 60.9375 120.605469 L 72.105469 120.605469 L 72.105469 124.328125 L 60.9375 124.328125 M 75.828125 120.605469 L 86.996094 120.605469 L 86.996094 124.328125 L 75.828125 124.328125 M 90.71875 120.605469 L 101.882812 120.605469 L 101.882812 124.328125 L 90.71875 124.328125 M 105.605469 120.605469 L 116.773438 120.605469 L 116.773438 124.328125 L 105.605469 124.328125 M 120.496094 120.605469 L 131.664062 120.605469 L 131.664062 124.328125 L 120.496094 124.328125 M 135.386719 120.605469 L 146.554688 120.605469 L 146.554688 124.328125 L 135.386719 124.328125 M 150.277344 120.605469 L 161.441406 120.605469 L 161.441406 124.328125 L 150.277344 124.328125 M 165.164062 120.605469 L 176.332031 120.605469 L 176.332031 124.328125 L 165.164062 124.328125 M 180.054688 120.605469 L 191.222656 120.605469 L 191.222656 124.328125 L 180.054688 124.328125 M 194.945312 120.605469 L 206.113281 120.605469 L 206.113281 124.328125 L 194.945312 124.328125 M 209.835938 120.605469 L 221 120.605469 L 221 124.328125 L 209.835938 124.328125 M 224.722656 120.605469 L 235.890625 120.605469 L 235.890625 124.328125 L 224.722656 124.328125 M 239.613281 120.605469 L 250.78125 120.605469 L 250.78125 124.328125 L 239.613281 124.328125 M 254.503906 120.605469 L 265.671875 120.605469 L 265.671875 124.328125 L 254.503906 124.328125 M 269.394531 120.605469 L 280.5625 120.605469 L 280.5625 124.328125 L 269.394531 124.328125 M 284.28125 120.605469 L 295.449219 120.605469 L 295.449219 124.328125 L 284.28125 124.328125 M 299.171875 120.605469 L 310.339844 120.605469 L 310.339844 124.328125 L 299.171875 124.328125 M 314.0625 120.605469 L 325.230469 120.605469 L 325.230469 124.328125 L 314.0625 124.328125 M 328.953125 120.605469 L 340.121094 120.605469 L 340.121094 124.328125 L 328.953125 124.328125 M 343.84375 120.605469 L 355.007812 120.605469 L 355.007812 124.328125 L 343.84375 124.328125 M 358.730469 120.605469 L 369.898438 120.605469 L 369.898438 124.328125 L 358.730469 124.328125 " fill-opacity="1" fill-rule="nonzero"/></g><g clip-path="url(#id3)"><path fill="#5ce1e6" d="M 71.035156 47.609375 C 53.964844 47.609375 40.152344 61.4375 40.152344 78.507812 C 40.152344 95.578125 53.964844 109.402344 71.035156 109.402344 C 88.105469 109.402344 101.945312 95.578125 101.945312 78.507812 C 101.945312 61.4375 88.105469 47.609375 71.035156 47.609375 Z M 71.050781 103.222656 C 57.394531 103.222656 46.332031 92.164062 46.332031 78.507812 C 46.332031 64.851562 57.394531 53.789062 71.050781 53.789062 C 84.707031 53.789062 95.765625 64.851562 95.765625 78.507812 C 95.765625 92.164062 84.707031 103.222656 71.050781 103.222656 Z M 71.050781 103.222656 " fill-opacity="1" fill-rule="nonzero"/></g><path fill="#5ce1e6" d="M 72.59375 63.058594 L 67.960938 63.058594 L 67.960938 81.597656 L 84.164062 91.328125 L 86.496094 87.527344 L 72.59375 79.277344 Z M 72.59375 63.058594 " fill-opacity="1" fill-rule="nonzero"/></svg>
