<?xml version="1.0" standalone="no"?>
<!DOCTYPE svg PUBLIC "-//W3C//DTD SVG 20010904//EN"
 "http://www.w3.org/TR/2001/REC-SVG-20010904/DTD/svg10.dtd">
<svg version="1.0" xmlns="http://www.w3.org/2000/svg"
 width="200.000000pt" height="200.000000pt" viewBox="0 0 200.000000 200.000000"
 preserveAspectRatio="xMidYMid meet">
<metadata>
Created by potrace 1.10, written by Peter Selinger 2001-2011
</metadata>
<g transform="translate(0.000000,200.000000) scale(0.100000,-0.100000)"
fill="#000000" stroke="none">
<path d="M860 1754 c-69 -41 -149 -88 -178 -105 l-53 -30 181 -105 c100 -57
186 -104 190 -104 4 0 89 47 189 104 l182 105 -68 39 c-239 138 -300 172 -308
171 -6 -1 -66 -34 -135 -75z m261 -36 c60 -35 121 -72 135 -83 l26 -20 -135
-78 c-73 -42 -140 -77 -148 -77 -7 0 -73 34 -147 76 -115 67 -131 79 -119 91
20 20 249 152 265 152 7 1 62 -27 123 -61z"/>
<path d="M602 1353 l3 -215 179 -104 c98 -57 180 -104 182 -104 2 0 4 96 4
213 l0 212 -185 107 -185 107 2 -216z m183 62 c66 -37 126 -74 133 -83 17 -22
17 -322 0 -322 -14 0 -234 125 -260 148 -16 13 -18 35 -18 167 0 141 3 170 19
161 3 -2 60 -34 126 -71z"/>
<path d="M1213 1460 l-183 -105 0 -212 c0 -117 2 -213 4 -213 5 0 350 201 359
209 4 4 6 102 5 217 l-3 209 -182 -105z m147 -133 c0 -134 -2 -156 -17 -169
-26 -22 -248 -148 -262 -148 -8 0 -11 45 -11 155 0 135 2 157 18 171 29 27
236 144 254 144 16 0 18 -14 18 -153z"/>
<path d="M440 1026 c-58 -35 -139 -83 -182 -107 l-76 -44 189 -109 c103 -59
192 -106 197 -104 5 1 91 50 191 108 126 72 179 107 170 113 -150 89 -362 207
-371 206 -7 0 -60 -29 -118 -63z m269 -63 c74 -43 134 -82 133 -88 -1 -12
-261 -165 -280 -165 -20 0 -282 153 -282 165 0 12 259 164 280 165 9 0 76 -35
149 -77z"/>
<path d="M1255 990 c-93 -55 -176 -103 -184 -107 -9 -6 44 -41 170 -113 100
-58 188 -106 193 -108 6 -1 95 46 197 106 l186 107 -181 105 c-99 58 -188 106
-196 107 -8 1 -91 -42 -185 -97z m330 -27 c74 -43 135 -82 135 -88 0 -11 -262
-165 -282 -165 -19 0 -281 153 -282 165 -1 11 262 165 282 165 7 0 73 -35 147
-77z"/>
<path d="M150 603 l1 -218 184 -105 c102 -58 189 -106 193 -108 4 -1 5 97 2
218 l-5 220 -182 105 c-101 58 -185 105 -188 105 -3 0 -5 -98 -5 -217z m205
59 l130 -77 3 -168 c2 -109 -1 -167 -8 -167 -20 0 -261 143 -275 164 -12 16
-15 55 -15 167 0 80 3 149 7 152 12 13 28 6 158 -71z"/>
<path d="M773 711 l-183 -106 0 -218 c0 -120 4 -217 8 -215 4 1 90 50 190 108
l182 105 0 218 c0 119 -3 217 -7 216 -5 -1 -90 -49 -190 -108z m157 -130 c0
-128 -3 -163 -15 -174 -19 -20 -259 -157 -274 -157 -13 0 -16 307 -2 328 10
16 261 162 279 162 9 0 12 -38 12 -159z"/>
<path d="M1030 603 l0 -218 182 -105 c100 -58 186 -106 190 -108 4 -2 8 95 8
215 l0 218 -182 105 c-100 58 -186 107 -190 108 -4 2 -8 -95 -8 -215z m196 61
c91 -52 134 -82 138 -97 10 -40 7 -305 -5 -312 -11 -7 -256 129 -276 153 -18
22 -18 332 -1 332 6 0 71 -34 144 -76z"/>
<path d="M1655 714 l-180 -104 -5 -220 c-3 -121 -2 -219 2 -218 4 2 91 50 193
108 l184 105 1 218 c0 119 -3 217 -7 216 -5 0 -89 -47 -188 -105z m145 -138
l0 -165 -27 -19 c-52 -35 -241 -142 -252 -142 -8 0 -11 51 -9 167 l3 168 130
77 c72 42 136 77 143 77 9 1 12 -38 12 -163z"/>
</g>
</svg>
